<svg width="74" height="109" viewBox="0 0 74 109" fill="none" xmlns="http://www.w3.org/2000/svg">
<g clip-path="url(#clip0_153_6742)">
<path fill-rule="evenodd" clip-rule="evenodd" d="M24.6145 48.8245C22.4786 51.8659 20.4383 55.0046 18.5273 58.2409C23.7725 62.8994 30.2817 66.1038 37.0159 68.077C53.4322 63.2892 67.1949 51.3824 66.9999 32.0325C66.9024 24.4301 66.9999 16.7602 66.9999 9.15776C52.0726 18.2499 38.8949 30.0593 28.2414 43.9074C31.2531 46.6246 34.0698 48.4704 36.6914 49.441C42.488 42.3558 48.9633 35.8515 56.0219 29.9956C56.0219 31.2248 56.0538 32.1637 56.0538 32.7783C56.1832 45.0411 47.4406 52.6117 37.014 55.653C32.4495 54.3263 28.0445 52.0945 24.6127 48.8264L24.6145 48.8245Z" fill="white"/>
<path fill-rule="evenodd" clip-rule="evenodd" d="M12.6989 51.6391C24.3876 32.9713 40.2207 17.2137 59.0018 5.6292C54.7598 4.04388 50.3567 2.6853 45.7903 1.64903C30.7992 12.231 17.9779 25.5938 8.00317 41.0272C8.97458 44.9755 10.5611 48.5022 12.697 51.6391H12.6989Z" fill="white"/>
<path fill-rule="evenodd" clip-rule="evenodd" d="M7.03376 29.379C15.5813 18.1825 25.7473 8.28265 37.211 0.0318563C37.1453 0.0318563 37.0816 0.0318563 37.0159 0C26.1036 1.58532 16.0989 4.62666 7 9.15589C7 18.7334 7.03376 25.4963 7.03376 29.379Z" fill="white"/>
</g>
<path d="M10.4729 100.946H4.0764V88.9833H1.55687V103.075H10.4729V100.946ZM16.7502 103.28C19.7873 103.28 21.7599 101.259 21.7599 97.8993C21.7599 94.5497 19.7677 92.5087 16.7502 92.5087C13.7326 92.5087 11.7404 94.5595 11.7404 97.8993C11.7404 101.259 13.713 103.28 16.7502 103.28ZM16.7502 101.356C15.2072 101.356 14.2111 100.106 14.2111 97.8993C14.2111 95.7021 15.217 94.4423 16.7502 94.4423C18.2931 94.4423 19.2892 95.7021 19.2892 97.8993C19.2892 100.106 18.2931 101.356 16.7502 101.356ZM32.7735 96.415C32.6075 94.2372 30.918 92.5087 28.1837 92.5087C25.1759 92.5087 23.2227 94.5888 23.2227 97.8993C23.2227 101.259 25.1759 103.28 28.2032 103.28C30.8009 103.28 32.588 101.757 32.7833 99.4423H30.4884C30.2637 100.614 29.463 101.317 28.2325 101.317C26.6895 101.317 25.6934 100.067 25.6934 97.8993C25.6934 95.7704 26.6798 94.4814 28.213 94.4814C29.5118 94.4814 30.2833 95.3114 30.4786 96.415H32.7735ZM37.0977 97.04H37.0684V88.9833H34.6367V103.075H37.0684V99.4814L37.8887 98.6513L41.1602 103.075H43.9727L39.6562 97.1767L43.7969 92.7236H40.9941L37.0977 97.04ZM45.9433 90.3017V92.7236H44.4589V94.5986H45.9433V100.321C45.9433 102.333 46.8222 103.124 49.0585 103.124C49.5761 103.124 50.0546 103.085 50.3183 103.026V101.171C50.162 101.2 49.8495 101.22 49.6249 101.22C48.7655 101.22 48.3749 100.829 48.3749 99.9794V94.5986H50.328V92.7236H48.3749V90.3017H45.9433ZM55.9608 101.405C54.9061 101.405 54.203 100.868 54.203 100.018C54.203 99.1982 54.8768 98.6708 56.0487 98.5927L58.4412 98.4462V99.2372C58.4412 100.487 57.3377 101.405 55.9608 101.405ZM55.2284 103.241C56.5565 103.241 57.8553 102.548 58.451 101.425H58.4998V103.075H60.8436V95.9462C60.8436 93.8661 59.1737 92.5087 56.6053 92.5087C53.9686 92.5087 52.3182 93.8954 52.2108 95.829H54.4666C54.6229 94.9697 55.3553 94.413 56.5077 94.413C57.7088 94.413 58.4412 95.038 58.4412 96.122V96.8642L55.7069 97.0204C53.1873 97.1767 51.7713 98.2802 51.7713 100.116C51.7713 101.981 53.2264 103.241 55.2284 103.241ZM68.8201 92.5478C67.3162 92.5478 66.1443 93.3095 65.5584 94.5107H65.5095V92.7236H63.1365V106.483H65.5681V101.356H65.617C66.1834 102.518 67.3552 103.241 68.8591 103.241C71.4568 103.241 73.117 101.2 73.117 97.8993C73.117 94.5888 71.447 92.5478 68.8201 92.5478ZM68.0779 101.249C66.5642 101.249 65.5584 99.9306 65.5486 97.8993C65.5584 95.8876 66.5642 94.5497 68.0779 94.5497C69.6502 94.5497 70.6267 95.8583 70.6267 97.8993C70.6267 99.9501 69.6502 101.249 68.0779 101.249Z" fill="#999999"/>
<defs>
<clipPath id="clip0_153_6742">
<rect width="60" height="68.0751" fill="white" transform="translate(7)"/>
</clipPath>
</defs>
</svg>
